<svg width="553" height="313" viewBox="0 0 553 313" fill="none" xmlns="http://www.w3.org/2000/svg">
<path fill-rule="evenodd" clip-rule="evenodd" d="M43.587 275.534C35.599 275.534 28.353 273.64 21.849 269.852C21.081 269.402 20.339 268.925 19.623 268.435V312.617H0.61499V190.772H19.623V196.678C20.352 196.202 21.094 195.738 21.849 195.301C28.353 191.394 35.48 189.447 43.587 189.447C51.693 189.447 58.992 191.341 65.496 195.129C72 198.917 77.14 204.082 80.902 210.624C84.783 217.048 86.717 224.279 86.717 232.318C86.717 240.357 84.783 247.642 80.902 254.184C77.14 260.727 72 265.945 65.496 269.852C58.992 273.64 51.574 275.534 43.587 275.534ZM43.573 257.283C48.263 257.283 52.369 256.25 55.906 254.184C59.549 251.999 62.344 249.019 64.291 245.231C66.344 241.443 67.377 237.139 67.377 232.318C67.377 227.497 66.344 223.246 64.291 219.577C62.238 215.909 59.443 213.035 55.906 210.969C52.356 208.784 48.13 207.697 43.573 207.697C39.016 207.697 34.91 208.784 31.254 210.969C27.717 213.035 24.922 215.909 22.869 219.577C20.922 223.246 19.955 227.497 19.955 232.318C19.955 237.139 20.935 241.443 22.869 245.231C24.922 249.019 27.717 251.999 31.254 254.184C34.897 256.25 38.884 257.283 43.573 257.283Z" fill="#006085"/>
<path fill-rule="evenodd" clip-rule="evenodd" d="M177.601 210.624C173.839 204.082 168.7 198.917 162.196 195.129C155.691 191.341 148.393 189.447 140.286 189.447C132.179 189.447 125.052 191.394 118.548 195.301C112.044 199.089 106.852 204.201 102.97 210.624C99.2079 217.048 97.3269 224.279 97.3269 232.318C97.3269 240.357 99.2079 247.642 102.97 254.184C106.852 260.727 112.044 265.945 118.548 269.852C125.052 273.64 132.298 275.534 140.286 275.534C148.274 275.534 155.691 273.64 162.196 269.852C168.7 265.945 173.839 260.727 177.601 254.184C181.482 247.642 183.416 240.357 183.416 232.318C183.416 224.279 181.482 217.048 177.601 210.624ZM161.268 245.403C159.334 249.191 156.526 252.171 152.883 254.356C149.346 256.423 145.24 257.456 140.564 257.456C135.888 257.456 131.887 256.423 128.245 254.356C124.708 252.171 121.913 249.191 119.86 245.403C117.926 241.616 116.946 237.311 116.946 232.49C116.946 227.67 117.912 223.418 119.86 219.75C121.913 216.081 124.708 213.207 128.245 211.141C131.901 208.956 136.007 207.87 140.564 207.87C145.121 207.87 149.346 208.956 152.883 211.141C156.42 213.207 159.215 216.081 161.268 219.75C163.322 223.418 164.355 227.67 164.355 232.49C164.355 237.311 163.322 241.616 161.268 245.403Z" fill="#006085"/>
<path fill-rule="evenodd" clip-rule="evenodd" d="M215.248 269.852C221.752 273.64 228.998 275.534 236.986 275.534C244.973 275.534 252.391 273.64 258.895 269.852C265.4 265.945 270.539 260.727 274.301 254.184C278.182 247.642 280.116 240.357 280.116 232.318C280.116 224.279 278.182 217.048 274.301 210.624C270.539 204.082 265.4 198.917 258.895 195.129C252.391 191.341 245.093 189.447 236.986 189.447C228.879 189.447 221.752 191.394 215.248 195.301C214.493 195.738 213.751 196.202 213.023 196.678V190.772H194.014V312.617H213.023V268.435C213.751 268.925 214.48 269.402 215.248 269.852ZM249.305 254.184C245.768 256.25 241.662 257.283 236.986 257.283C232.31 257.283 228.309 256.25 224.666 254.184C221.13 251.999 218.335 249.019 216.282 245.231C214.348 241.443 213.367 237.139 213.367 232.318C213.367 227.497 214.334 223.246 216.282 219.577C218.335 215.909 221.13 213.035 224.666 210.969C228.323 208.784 232.429 207.697 236.986 207.697C241.543 207.697 245.768 208.784 249.305 210.969C252.842 213.035 255.637 215.909 257.69 219.577C259.743 223.246 260.777 227.497 260.777 232.318C260.777 237.139 259.743 241.443 257.69 245.231C255.756 249.019 252.948 251.999 249.305 254.184Z" fill="#006085"/>
<path d="M451.381 143.448C451.139 143.174 450.795 143.012 450.43 143.001C450.065 142.989 449.712 143.128 449.453 143.386L435.496 157.288C433.106 159.651 431.097 162.527 430.376 165.857C429.36 170.55 431.294 175.35 434.386 178.854C434.628 179.128 434.972 179.29 435.337 179.301C435.702 179.313 436.055 179.174 436.314 178.916L450.274 165.012C456.336 159.033 457.091 149.918 451.381 143.448Z" fill="#71AA2D"/>
<path fill-rule="evenodd" clip-rule="evenodd" d="M311.948 269.852C318.452 273.64 325.697 275.534 333.685 275.534C341.673 275.534 349.091 273.64 355.595 269.852C356.853 269.097 358.059 268.289 359.224 267.441V273.083C359.224 279.666 357.078 284.831 352.787 288.579C348.495 292.433 342.454 294.089 335.102 294.089C332.4 294.089 329.857 294.062 327.353 294.049C322.492 294.009 317.816 293.969 312.583 294.089C294.104 293.744 293.376 312.63 293.376 312.63H328.016C329.353 312.723 331.128 312.697 332.811 312.657C333.619 312.644 334.4 312.63 335.102 312.63C343.58 312.63 350.919 310.604 357.357 307.319C363.794 304.022 368.828 299.426 372.444 293.519C376.061 287.731 377.876 280.924 377.876 273.083V190.785H359.224V197.499C358.072 196.665 356.853 195.884 355.595 195.142C349.091 191.354 341.792 189.46 333.685 189.46C325.578 189.46 318.452 191.407 311.948 195.314C305.443 199.102 300.251 204.214 296.37 210.638C292.608 217.061 290.727 224.292 290.727 232.331C290.727 240.371 292.608 247.655 296.37 254.197C300.251 260.74 305.443 265.958 311.948 269.865V269.852ZM346.004 254.184C342.467 256.25 338.361 257.283 333.685 257.283C329.009 257.283 325.009 256.25 321.366 254.184C317.829 251.999 315.034 249.019 312.981 245.231C311.047 241.443 310.066 237.139 310.066 232.318C310.066 227.497 311.034 223.246 312.981 219.577C315.034 215.909 317.829 213.035 321.366 210.969C325.022 208.783 329.128 207.697 333.685 207.697C338.242 207.697 342.467 208.783 346.004 210.969C349.541 213.035 352.336 215.909 354.389 219.577C356.443 223.246 357.476 227.497 357.476 232.318C357.476 237.139 356.443 241.443 354.389 245.231C352.455 249.019 349.647 251.999 346.004 254.184Z" fill="#71AA2D"/>
<path d="M516.805 275.52C519.918 275.573 523.985 275.401 527.177 274.871C536.609 273.269 542.768 269.6 547.484 264.011C552.2 258.422 553.895 251.655 552.557 243.708C551.723 238.715 550.027 234.861 547.497 232.133C544.941 229.298 541.881 227.246 538.317 225.987C534.847 224.597 531.23 223.696 527.468 223.286C523.799 222.743 520.262 222.292 516.845 221.935C513.546 221.564 510.778 220.928 508.553 220.014C506.327 219.114 505.016 217.524 504.631 215.26C504.274 213.101 505.002 211.287 506.83 209.803C508.658 208.333 511.427 207.274 515.123 206.638C518.368 206.082 524.289 206.068 527.826 205.976C546.305 206.32 547.034 189.421 547.034 189.421H516.845C508.552 189.421 501.77 192.281 497.293 195.301C493.253 198.082 490.312 201.565 488.484 205.724C486.749 209.869 486.325 214.558 487.212 219.776C488.034 224.65 489.716 228.451 492.246 231.179C494.776 233.894 497.77 235.894 501.227 237.179C504.764 238.331 508.367 239.112 512.023 239.549C515.785 239.96 519.335 240.41 522.647 240.9C526.051 241.258 528.886 241.947 531.138 242.953C533.39 243.973 534.728 245.734 535.138 248.224C535.536 250.608 534.396 253.363 532.476 254.979C530.555 256.595 528.025 257.588 523.865 258.29C517.812 259.323 510.818 258.224 504.658 258.369C486.179 258.025 485.451 275.507 485.451 275.507H516.58C516.659 275.507 516.739 275.507 516.805 275.507V275.52Z" fill="#71AA2D"/>
<path fill-rule="evenodd" clip-rule="evenodd" d="M431.603 275.534C439.591 275.534 446.837 273.64 453.341 269.852C454.109 269.402 454.838 268.925 455.566 268.435V275.534H474.575V190.772H455.566V196.678C454.838 196.202 454.096 195.738 453.341 195.301C446.837 191.394 439.71 189.447 431.603 189.447C423.496 189.447 416.198 191.341 409.694 195.129C403.19 198.917 398.05 204.082 394.288 210.624C390.407 217.048 388.473 224.279 388.473 232.318C388.473 240.357 390.407 247.642 394.288 254.184C398.05 260.727 403.19 265.945 409.694 269.852C416.198 273.64 423.616 275.534 431.603 275.534ZM443.128 219.895C441.949 221.988 439.141 222.584 437.141 221.246C435.141 219.909 435.62 216.727 436.081 215.657C438.797 206.691 431.856 202.969 429.352 201.95C429.127 201.857 428.902 202.108 429.034 202.32C430.014 203.87 429.855 205.843 429.855 205.843C429.855 209.092 423.573 214.551 419.443 218.138C418.035 219.362 416.877 220.368 416.304 220.995C414.277 223.22 413.973 223.657 413.032 225.219C411.111 228.517 410.145 232.212 410.145 236.318C410.145 240.424 411.111 244.145 413.032 247.496C415.019 250.847 417.668 253.509 420.993 255.509C424.318 257.442 427.961 258.409 432.107 258.409C436.253 258.409 439.989 257.442 443.314 255.509C446.639 253.509 449.275 250.847 451.195 247.496C453.182 244.158 454.176 240.437 454.176 236.318C454.176 232.199 453.182 228.504 451.195 225.219C448.527 220.809 443.352 216.184 443.539 216.849C443.804 217.829 443.671 218.915 443.128 219.895Z" fill="#71AA2D"/>
<path fill-rule="evenodd" clip-rule="evenodd" d="M281.111 0.166876C281.194 0.188876 281.305 0.218879 281.441 0.257879C281.713 0.334879 282.088 0.44587 282.548 0.59487C283.467 0.89287 284.737 1.34588 286.221 1.98588C289.162 3.25388 293.076 5.31387 296.756 8.46587C300.454 11.6329 304.008 15.9879 305.984 21.8049C307.974 27.6619 308.227 34.6049 305.936 42.6799C304.182 48.8729 305.094 52.6209 306.315 54.6209C307.536 56.6209 309.459 57.5709 311.353 57.6289C313.268 57.6879 315.037 56.8449 316.097 55.2299C317.138 53.6449 318.033 50.4489 316.257 44.9059C315.555 42.7129 316.349 40.3169 318.224 38.9789L318.316 38.9129C320.225 37.5499 322.802 37.6029 324.652 39.0439C336.482 48.2579 345.131 61.6739 348.079 77.5799C354.493 112.097 331.704 145.269 297.18 151.67C262.657 158.084 229.478 135.299 223.076 100.781C219.724 82.6949 224.382 64.9729 234.536 51.2969C236.28 48.9479 239.599 48.4569 241.949 50.2009C244.299 51.9449 244.789 55.2629 243.045 57.6119C234.575 69.0199 230.702 83.7729 233.496 98.8499C238.83 127.612 266.478 146.598 295.246 141.253L295.248 141.252C324.016 135.919 343.006 108.276 337.659 79.5129V79.5109C336.029 70.7139 332.313 62.8389 327.114 56.2899C326.627 58.0069 325.906 59.5979 324.957 61.0429C321.701 66.0029 316.3 68.3819 311.026 68.2189C305.73 68.0559 300.444 65.3399 297.27 60.1409C294.096 54.9419 293.427 47.9579 295.739 39.7929L295.74 39.7909C297.521 33.5179 297.165 28.7899 295.95 25.2119C294.721 21.5939 292.474 18.7499 289.861 16.5119C289.768 16.4329 289.675 16.3539 289.582 16.2759C290.534 23.3869 289.299 32.4389 282.487 42.3549C276.881 50.5169 272.264 56.3389 268.534 61.0429C267.68 62.1199 266.873 63.1379 266.111 64.1119C262.024 69.3359 259.293 73.2259 257.117 78.4689C255.354 82.7199 254.494 88.6449 255.34 93.2369C258.411 109.775 274.308 120.692 290.846 117.612H290.85C307.389 114.544 318.302 98.6499 315.233 82.1079C314.699 79.2309 316.598 76.4659 319.476 75.9329C322.353 75.3989 325.118 77.2979 325.652 80.1749C329.788 102.463 315.084 123.89 292.787 128.029C270.487 132.18 249.057 117.458 244.92 95.1659L244.919 95.1599C243.646 88.2569 244.906 80.2509 247.328 74.4099C250.066 67.8129 253.516 63.0139 257.764 57.5839C258.572 56.5509 259.411 55.4929 260.285 54.3899C264.004 49.6989 268.369 44.1919 273.752 36.3569C279.662 27.7539 279.802 20.7299 278.791 16.0359C278.268 13.6069 277.406 11.6769 276.69 10.3769C276.333 9.72988 276.019 9.24988 275.813 8.95388C275.71 8.80688 275.635 8.70687 275.596 8.65587C275.584 8.63987 275.575 8.62787 275.57 8.62287C274.13 6.86487 273.971 4.38188 275.179 2.45388C276.47 0.391879 279.081 -0.371124 281.111 0.166876Z" fill="url(#paint0_linear_2957_620)"/>
<defs>
<linearGradient id="paint0_linear_2957_620" x1="294.904" y1="53.8029" x2="257.789" y2="164.685" gradientUnits="userSpaceOnUse">
<stop stop-color="#006085"/>
<stop offset="1" stop-color="#71AA2D"/>
</linearGradient>
</defs>
</svg>
